<svg version="1" xmlns="http://www.w3.org/2000/svg" width="682.667" height="682.667" viewBox="0 0 512.000000 512.000000"><path d="M254 51.3c-7.2 3.6-15.9 7.7-42.7 20.1l-4.3 2v127.2l11.8 9.2c6.4 5 13.7 11 16.2 13.2 8 7.4 18.4 17.5 23.8 23.3 2.8 3.1 5.5 5.8 6 6 .4.3.7-45.8.7-102.4 0-90.9-.2-102.9-1.5-102.8-.8 0-5.3 1.9-10 4.2zM109.7 198.6c-.1.1-3.1.4-6.7.7-3.6.3-7.6.8-9 1.1-12.7 2.7-22.3 6-31 10.8-28.6 15.7-48.5 43.4-57.2 79.8-1.1 4.7-2.2 9.4-2.4 10.5-2.2 12.7-2.7 18.8-2.9 36-.2 16 .1 22.2 1.7 31 6.3 35.9 23.7 61.9 53.3 79.3 11.9 7 31.2 14 43.5 15.8 2.5.3 7 1 10 1.4 15.3 2.2 34.6.5 47.5-4.2 16.5-6 34.5-20 45.9-35.7l4.6-6.3V461h58.6l-.2-21.3c-.2-24.1-.7-26.4-9.3-43.2-4.7-9.3-19.3-31.7-28.4-43.7-2.9-3.7-8.6-11.3-12.7-16.7-4.1-5.5-7.5-9.9-7.6-9.8-.2.1-.4 3.6-.5 7.7-.1 4.1-.6 9.1-1 11-.4 1.9-1 5.3-1.3 7.5-.4 2.2-1.8 7.5-3.2 11.8-8.5 25.6-24.6 41.8-48.6 48.8-10.6 3.1-31.5 3.5-41.7.9-28.7-7.4-45.9-30.2-50.6-67.5-1.1-8.3-1.3-27.9-.3-34.1 2.9-19.7 12.7-36.5 27.5-47 13.2-9.5 27-14 44-14.3 34.5-.7 62.1 19.8 111.4 82.4 3 3.8 12.2 16.4 20.4 28 33.6 47.4 50.8 66.1 76.4 83.4 10.6 7.2 31 16.2 42.1 18.7 15.7 3.4 34.9 4.1 48 1.7 27.2-4.9 56.8-21.1 78.7-43.1l3.2-3.3-17-16.7c-9.4-9.2-17.5-16.9-18.1-17.1-.5-.2-2.9 1.4-5.1 3.6-12.2 11.5-25.3 19.2-41.3 24.3-9.6 3.1-30.6 3.7-39.3 1-20.7-6.2-42.1-26.9-99-95.5-31.4-37.8-30.3-36.4-41.8-49.6-31.8-36.4-53.5-52.9-82.2-62.6-4.1-1.4-8.5-2.7-9.6-2.9-1.1-.2-4-.8-6.5-1.3-5.6-1.3-9.8-1.9-17.5-2.7-5.9-.5-24.4-1.2-24.8-.8z"/><path d="M397 200.2c-46 3.7-86 30-107 70.5l-4.3 8.1 3.4 4.4c12.8 16.6 42.3 50.8 43.8 50.8.3 0 .6-1.9.7-4.3.1-5.5 1.2-15.6 1.8-16.6.3-.4.8-2.3 1.1-4.2 1.9-10.8 10.7-26.2 20.9-36.5 10.5-10.5 19.5-15.7 33.6-19.5 6-1.6 23.3-2 29.5-.8 2.8.6 6 1.2 7.3 1.5 11.9 2.4 26.7 11.2 39.2 23.1l6.5 6.3 6-6.3c3.3-3.4 11.6-12.3 18.4-19.7l12.4-13.4-8.9-8.4c-22.6-21.3-49.3-32.9-79.6-34.8-5.1-.3-10.6-.6-12.3-.7-1.6-.2-7.3.1-12.5.5z"/></svg>